<?xml version="1.0" standalone="no"?>
<!DOCTYPE svg PUBLIC "-//W3C//DTD SVG 20010904//EN"
 "http://www.w3.org/TR/2001/REC-SVG-20010904/DTD/svg10.dtd">
<svg version="1.0" xmlns="http://www.w3.org/2000/svg"
 width="657.000000pt" height="657.000000pt" viewBox="0 0 657.000000 657.000000"
 preserveAspectRatio="xMidYMid meet">
<metadata>
Created by potrace 1.14, written by Peter Selinger 2001-2017
</metadata>
<g transform="translate(0.000000,657.000000) scale(0.100000,-0.100000)"
fill="#000000" stroke="none">
<path d="M1640 6562 c-14 -2 -90 -21 -170 -43 -80 -22 -153 -42 -162 -44 -55
-12 -229 -61 -327 -93 -134 -43 -152 -58 -227 -183 l-50 -86 95 -54 c80 -45
103 -53 146 -53 85 0 180 21 468 103 75 21 137 38 137 37 0 -1 32 -144 71
-317 38 -173 79 -354 89 -403 11 -49 24 -104 29 -122 5 -19 9 -34 8 -35 -1 -1
-126 -2 -277 -4 -312 -3 -357 -7 -420 -38 -67 -33 -85 -72 -85 -182 0 -81 10
-200 19 -251 2 -11 7 -41 10 -69 4 -27 11 -86 17 -130 5 -44 12 -96 14 -115 6
-43 11 -87 20 -165 4 -33 8 -71 10 -85 2 -14 6 -50 10 -80 4 -30 8 -66 10 -80
2 -14 6 -50 10 -80 3 -30 10 -86 15 -125 10 -74 13 -104 30 -243 6 -48 12
-103 15 -122 2 -19 7 -57 10 -85 3 -27 7 -61 10 -75 2 -14 7 -52 10 -85 6 -60
8 -77 20 -170 4 -27 8 -63 10 -80 2 -16 7 -52 10 -80 3 -27 10 -86 16 -130 5
-44 12 -96 14 -115 2 -19 9 -71 14 -115 6 -44 13 -106 16 -138 4 -32 8 -66 10
-75 1 -9 6 -46 10 -82 4 -36 9 -74 11 -85 2 -11 6 -44 9 -73 3 -29 7 -67 10
-85 2 -18 6 -52 9 -77 3 -25 19 -155 36 -290 17 -135 33 -265 36 -290 3 -25 7
-56 9 -70 3 -14 7 -54 10 -90 3 -36 8 -72 10 -80 2 -8 7 -44 10 -80 3 -36 8
-77 11 -92 2 -16 6 -40 8 -55 3 -16 7 -53 10 -83 4 -30 8 -64 10 -75 2 -11 7
-49 11 -85 3 -36 9 -78 12 -95 2 -16 6 -43 8 -58 9 -64 48 -185 78 -241 45
-85 120 -157 208 -200 136 -66 121 -65 1064 -62 842 2 851 2 928 24 184 51
283 148 347 338 21 62 23 71 40 164 12 71 17 104 25 165 8 69 25 205 30 235 2
14 6 48 10 75 3 28 7 66 10 85 2 19 7 60 10 90 4 30 8 66 11 80 2 13 8 70 14
125 6 55 13 111 15 125 2 14 6 50 10 80 7 61 8 74 29 245 9 66 18 145 21 175
3 30 8 66 10 80 2 14 6 52 10 85 3 33 8 71 10 85 5 30 14 97 20 160 3 25 8 60
10 78 3 18 7 54 10 80 3 26 7 63 10 82 7 51 14 109 20 160 3 25 7 61 10 80 10
81 25 198 30 245 5 46 11 93 20 155 2 14 6 52 10 85 3 33 8 69 10 80 2 11 7
47 10 80 7 63 8 73 24 195 6 41 13 102 17 135 3 33 8 69 10 80 2 11 7 50 10
87 7 73 2 69 92 83 67 11 98 16 142 26 25 6 53 12 64 15 95 19 289 91 386 142
287 152 465 379 535 680 25 108 30 161 29 327 -1 124 -5 180 -22 250 -84 365
-298 648 -607 803 -81 40 -190 78 -255 88 -19 3 -55 10 -80 14 -71 13 -278 9
-355 -7 -227 -47 -424 -191 -585 -428 -79 -116 -193 -344 -236 -470 -7 -22
-33 -98 -57 -170 l-44 -130 -574 1 c-734 2 -801 4 -840 23 -33 16 -105 99
-121 141 -13 32 -58 204 -92 350 -15 63 -31 133 -36 155 -5 22 -21 94 -36 160
-14 66 -28 129 -31 140 -2 11 -6 31 -9 45 -13 64 -37 147 -51 175 -41 80 -110
119 -193 107z m3266 -477 c288 -59 510 -279 590 -585 19 -71 22 -106 19 -210
-3 -129 -4 -136 -31 -228 -84 -289 -318 -483 -639 -529 -39 -6 -58 -6 -124 -4
l-33 1 6 78 c4 42 9 95 11 117 2 22 7 67 10 100 4 33 10 80 15 104 4 24 7 76
6 116 -2 57 -8 82 -29 117 -54 92 -89 101 -407 104 -140 1 -258 2 -262 3 -4 0
-5 11 -3 24 2 12 6 47 9 77 18 158 92 352 177 460 92 119 210 201 339 238 125
35 229 40 346 17z m-3177 -1207 c52 -13 102 -68 129 -140 20 -52 162 -653 162
-683 0 -9 -10 -15 -22 -16 -13 0 -30 -2 -38 -3 -8 -2 -53 -6 -100 -10 -92 -8
-158 -14 -205 -21 -91 -11 -203 -16 -208 -8 -3 5 -8 34 -11 64 -6 56 -9 82
-27 214 -6 44 -13 98 -15 120 -3 22 -7 56 -10 75 -3 19 -7 55 -10 80 -2 25 -9
72 -14 105 -5 33 -12 89 -15 125 -6 60 -5 66 17 80 13 8 46 17 73 20 84 10
252 9 294 -2z m2627 -38 c-3 -19 -8 -60 -11 -90 -4 -30 -8 -66 -10 -80 -2 -14
-6 -54 -10 -90 -3 -36 -8 -72 -10 -80 -2 -8 -7 -48 -10 -88 -4 -41 -8 -81 -10
-90 -1 -9 -6 -44 -9 -77 -4 -33 -9 -71 -11 -85 -2 -14 -6 -52 -10 -85 -3 -33
-8 -71 -10 -85 -2 -14 -6 -43 -9 -65 -3 -22 -9 -62 -12 -90 -3 -27 -16 -119
-29 -203 -26 -171 -23 -165 -128 -249 l-68 -54 -35 22 -35 21 6 62 c3 33 8 79
10 101 3 22 7 67 10 100 3 33 8 89 11 125 11 111 12 130 19 296 8 183 -1 246
-46 336 -34 68 -63 89 -127 96 -38 3 -53 0 -75 -18 -24 -19 -75 -100 -63 -100
3 0 1 -14 -4 -32 -13 -43 -21 -109 -35 -273 -3 -33 -7 -76 -10 -95 -12 -95
-23 -192 -30 -279 -6 -70 -17 -156 -21 -160 -4 -4 -1033 404 -1110 440 -55 27
-85 83 -118 229 -15 63 -33 142 -41 175 -36 154 -105 470 -105 484 0 15 105
16 1075 16 l1076 0 -5 -35z m-2156 -1213 c14 -3 46 -8 71 -11 320 -44 612
-158 963 -375 179 -111 248 -176 271 -255 22 -75 22 -252 0 -396 -3 -24 -13
-123 -20 -200 -6 -71 -17 -176 -20 -200 -2 -14 -7 -59 -10 -100 -3 -41 -8 -86
-10 -100 -2 -14 -7 -59 -10 -100 -13 -157 -15 -176 -20 -220 -7 -64 -18 -176
-30 -317 -6 -60 -15 -151 -20 -203 -2 -19 -7 -69 -10 -110 -4 -41 -8 -88 -10
-105 -3 -16 -7 -73 -11 -127 -6 -87 -5 -100 16 -142 29 -60 79 -88 162 -88 72
-1 103 18 135 83 22 43 27 69 38 179 3 30 7 73 10 95 2 22 7 76 11 120 3 44 8
88 10 99 2 10 6 53 9 95 4 42 8 87 10 101 2 14 7 61 10 105 4 44 9 87 10 96 2
9 6 56 10 105 4 49 9 98 11 108 2 10 6 51 9 90 3 39 8 87 11 107 2 20 6 56 8
80 7 82 18 184 21 209 2 14 6 54 10 90 3 36 8 81 10 100 2 19 7 60 10 90 7 65
16 141 30 255 1 11 3 25 4 32 2 17 122 193 132 193 5 0 27 -7 49 -16 35 -14
43 -22 42 -44 0 -16 -14 -165 -17 -183 -2 -12 -6 -53 -10 -92 -6 -72 -12 -124
-20 -185 -2 -19 -7 -60 -10 -90 -4 -30 -8 -66 -10 -80 -2 -14 -7 -54 -10 -90
-4 -36 -9 -72 -10 -80 -3 -14 -11 -80 -21 -165 -2 -22 -7 -51 -9 -65 -2 -14
-7 -54 -11 -90 -3 -36 -7 -72 -9 -80 -2 -8 -6 -44 -10 -80 -4 -36 -9 -73 -10
-82 -2 -9 -6 -44 -10 -77 -3 -33 -7 -68 -9 -78 -2 -10 -7 -45 -10 -78 -4 -33
-9 -71 -11 -85 -2 -14 -6 -52 -10 -85 -4 -33 -8 -73 -10 -90 -3 -16 -7 -52
-10 -80 -5 -53 -13 -120 -20 -170 -2 -16 -9 -77 -15 -135 -20 -181 -48 -249
-125 -302 -22 -15 -60 -30 -85 -34 -50 -8 -1202 -8 -1402 0 -142 6 -194 21
-281 84 -54 39 -73 69 -82 132 -3 25 -8 56 -10 70 -9 66 -19 136 -20 150 -1 8
-5 38 -9 65 -4 28 -9 60 -11 71 -2 12 -7 48 -10 80 -4 33 -9 68 -11 79 -2 11
-6 45 -9 75 -4 30 -8 62 -10 70 -2 8 -7 42 -11 75 -3 33 -8 69 -10 80 -2 11
-6 43 -9 70 -4 28 -8 61 -10 75 -5 35 -26 193 -41 315 -2 22 -6 56 -9 75 -3
19 -7 53 -9 75 -3 22 -10 78 -16 125 -6 47 -13 99 -15 115 -2 17 -6 50 -9 75
-4 25 -8 63 -11 85 -3 22 -10 76 -16 120 -6 44 -12 94 -14 110 -7 74 -16 152
-20 170 -2 11 -6 47 -10 80 -3 33 -8 69 -10 80 -2 11 -6 47 -10 80 -3 33 -8
69 -10 80 -2 11 -7 47 -10 80 -4 33 -8 71 -11 85 -2 14 -6 50 -9 80 -3 30 -8
64 -10 75 -2 11 -7 48 -11 82 -6 59 -5 62 17 67 40 9 91 15 174 22 44 4 82 8
84 10 6 6 401 -3 431 -9z"/>
</g>
</svg>
